<svg xmlns="http://www.w3.org/2000/svg" xmlns:xlink="http://www.w3.org/1999/xlink" xml:space="preserve" width="46.246" height="38.888" viewBox="0 0 12.236 10.289"><defs><pattern xlink:href="#aa" id="ab" x="0" y="0" patternTransform="translate(631.685 -131.76)scale(.02381)" preserveAspectRatio="xMidYMid"/><pattern id="aa" width="14" height="30" patternTransform="translate(43 80)" patternUnits="userSpaceOnUse" preserveAspectRatio="xMidYMid" style="fill:#191f27"><path d="M12 10a5 5 0 0 1-5 5c-2.761 0-5.037-2.239-5-5C2.053 6.062 7 0 7 0s5 6 5 10M14 30c-2.761 0-5.037-2.239-5-5 .053-3.938 5-10 5-10ZM0 30c2.761 0 5.037-2.239 5-5-.053-3.938-5-10-5-10Z" style="fill-rule:evenodd;stroke-width:4.8561;stroke-linecap:square;paint-order:stroke markers fill;stop-color:#000"/></pattern></defs><g transform="translate(-384.61 -71.06)scale(.5787)"><path d="M673.778 124.17c-1.201.017-2.367.23-3.373.811-1.69.977-2.477 3.08-3.249 4.874-.815 1.895-1.253 3.63-1.38 6.033-.065 1.248.063 2.853.11 4.429 7.052-.041 13.321-.038 18.532 0 .12-2.877.235-5.762-.255-8.584-.303-1.745-.522-3.727-1.726-5.026-1.253-1.35-3.262-1.87-5.077-2.183-1.145-.197-2.381-.373-3.582-.355" style="fill:#cb965b;fill-opacity:1;stroke:#191f27;stroke-width:.50964;stroke-linecap:round;stroke-linejoin:round;stroke-miterlimit:3.3;stroke-dasharray:none;stroke-dashoffset:11.1594;stroke-opacity:1;paint-order:normal"/><ellipse cx="675.57" cy="131.617" rx="7.723" ry="6.551" style="display:inline;fill:#e6cdc5;fill-opacity:1;stroke:#192027;stroke-width:.50964;stroke-linecap:round;stroke-linejoin:round;stroke-dasharray:none;stroke-opacity:1"/><ellipse cx="673.201" cy="131.251" rx=".845" ry=".702" style="display:inline;fill:#192027;fill-opacity:1;stroke:#192027;stroke-width:.50964;stroke-linecap:round;stroke-linejoin:round;stroke-dasharray:none;stroke-opacity:1"/><ellipse cx="678.181" cy="131.415" rx=".845" ry=".702" style="display:inline;fill:#192027;fill-opacity:1;stroke:#192027;stroke-width:.50964;stroke-linecap:round;stroke-linejoin:round;stroke-dasharray:none;stroke-opacity:1"/><path d="M672.932 132.627s-1.309 1.519-1.282 2.436c.015.5.278 1.23.775 1.282.524.055.94-.647 1.078-1.155.23-.844-.57-2.563-.57-2.563" style="fill:#a9e9e2;fill-opacity:1;stroke:#191f27;stroke-width:.50964;stroke-linecap:round;stroke-linejoin:round;stroke-miterlimit:3.3;stroke-dasharray:none;stroke-dashoffset:11.1594;stroke-opacity:1;paint-order:normal"/><path d="M664.885 134.469c-.306-5.453 2.695-11.116 9.833-11.397q11.325-.446 10.73 11.978-10.864 1.98-20.563-.581" style="fill:url(#ab);fill-opacity:1;stroke:#191f27;stroke-width:.529517;stroke-linecap:round;stroke-linejoin:round;stroke-miterlimit:3.3;stroke-dasharray:none;stroke-dashoffset:11.1594;stroke-opacity:1;paint-order:normal"/></g></svg>