<svg xmlns="http://www.w3.org/2000/svg" width="287.245" height="476.218" viewBox="0 0 76 125.999"><defs><filter id="a" width="1.186" height="1.096" x="-.118" y="-.037" style="color-interpolation-filters:sRGB"><feFlood flood-color="#191f27" flood-opacity=".502" result="flood"/><feGaussianBlur in="SourceGraphic" result="blur" stdDeviation=".5"/><feOffset dx="-1" dy=".8" in="blur" result="offset"/><feComposite in="flood" in2="offset" operator="in" result="comp1"/><feComposite in="SourceGraphic" in2="comp1" result="comp2"/></filter></defs><path d="M-326.06 491.183v75.582h44.09v-75.582h-41.92z" style="fill:#191f27;fill-opacity:1;stroke:#191f27;stroke-width:3.77914;stroke-linecap:round;stroke-linejoin:miter;stroke-miterlimit:3.3;stroke-dasharray:none;stroke-opacity:1;paint-order:markers stroke fill" transform="translate(520.674 -776.832)scale(1.58766)"/><path d="M773.671 118.269h63.062a3.46 3.46 0 0 1 3.47 3.469V234.8a3.46 3.46 0 0 1-3.47 3.469h-63.062a3.46 3.46 0 0 1-3.469-3.47V121.739a3.46 3.46 0 0 1 3.469-3.47" style="fill:#fff;fill-opacity:1;stroke:none;stroke-width:.204378;stroke-linecap:round;stroke-linejoin:round;stroke-miterlimit:3.3;stroke-opacity:1" transform="matrix(.9 0 0 .94166 -686.674 -104.868)"/><path d="M-156.318 748.545c-.038.008-.033.014-.205-.284l-.155-.267.005-.023c.005-.018.008-.024.027-.034.016-.008.025-.011.042-.006l.022.006.156.27c.172.299.168.29.143.319-.014.016-.01.015-.036.02zm-.634-.504a.6.6 0 0 1-.34.011.6.6 0 0 1-.28-.184 3 3 0 0 1-.132-.218l-.11-.19.072-.041a.66.66 0 0 1 .313-.109.5.5 0 0 1 .177.019c.088.023.161.063.23.124.062.056.076.077.191.277l.108.186-.096.057c-.063.036-.11.06-.133.07zm.211-.384c-.113-.202-.116-.207-.129-.255a.57.57 0 0 1 .213-.605c.024-.017.076-.05.114-.07l.069-.038.113.196c.127.22.137.242.148.336a.56.56 0 0 1-.162.479.6.6 0 0 1-.139.096l-.111.067zm-.686-.415a.563.563 0 0 1-.486-.069c-.1-.067-.101-.068-.243-.309l-.123-.208.103-.056a.58.58 0 0 1 .49-.068.6.6 0 0 1 .182.102c.069.057.083.075.2.271.06.101.11.19.113.198l.005.014-.098.055a.7.7 0 0 1-.142.07zm.237-.359a4 4 0 0 1-.12-.22.58.58 0 0 1-.019-.378.7.7 0 0 1 .095-.181.6.6 0 0 1 .196-.161l.102-.062.115.203c.128.228.133.24.146.338a.57.57 0 0 1-.165.476.6.6 0 0 1-.139.096l-.109.066zm-.702-.443a.56.56 0 0 1-.55-.119c-.055-.05-.077-.082-.19-.281l-.105-.185.092-.053a.6.6 0 0 1 .206-.087.53.53 0 0 1 .26.008c.07.02.111.038.169.078.097.065.147.13.281.37l.079.14-.099.057a.6.6 0 0 1-.143.072zm.236-.364c-.11-.192-.133-.239-.148-.312a1 1 0 0 1-.012-.156l.008-.05a.5.5 0 0 1 .034-.127.7.7 0 0 1 .129-.188c.04-.04.222-.157.242-.156.008 0 .03.037.124.204l.115.204.012.05a.55.55 0 0 1-.005.304.53.53 0 0 1-.282.342l-.111.067zm-.403-.437c-.18-.018-.31-.07-.406-.166a.5.5 0 0 1-.117-.205.6.6 0 0 1 .03-.36.6.6 0 0 1 .074-.154c.025-.005.18.017.236.031.076.02.13.045.185.083.128.09.194.21.203.369 0 .03.002.057 0 .062-.007.053-.019.112-.029.144-.01.036-.08.2-.085.203 0 0-.043-.002-.093-.008z" style="fill:#8ca6c6;fill-opacity:1;stroke-width:.0206054" transform="translate(263.055 -1088.125)scale(1.58766)"/><path d="M-157.363 743.561a3.086 3.086 0 0 0-3.084 3.082c0 1.7 1.383 3.084 3.084 3.084a3.09 3.09 0 0 0 2.926-2.114v.006s.244-.736.736-.814h27.502a.16.16 0 0 0 .16-.162.16.16 0 0 0-.16-.16h-27.5c-.493-.075-.738-.814-.738-.814v.005a3.09 3.09 0 0 0-2.926-2.112zm0 .323a2.756 2.756 0 0 1 2.76 2.76v.002a2.76 2.76 0 1 1-2.76-2.763" style="baseline-shift:baseline;display:inline;overflow:visible;vector-effect:none;fill:#191f27;stroke-linecap:round;stroke-linejoin:round;stroke-miterlimit:3.3;paint-order:markers stroke fill;enable-background:accumulate;stop-color:#000" transform="translate(263.055 -1088.125)scale(1.58766)"/><path d="M-147.889 694.135h-.88v-.27q0-.19-.034-.242t-.113-.051q-.086 0-.13.07-.043.07-.043.211 0 .183.05.275.046.092.267.223.633.376.798.617.164.242.164.778 0 .39-.092.574-.09.185-.352.311-.26.124-.608.124-.38 0-.651-.144-.268-.144-.352-.367t-.083-.633v-.24h.881v.445q0 .205.036.263.038.059.133.059t.14-.075q.047-.074.047-.22 0-.323-.088-.422-.09-.099-.444-.33-.353-.235-.468-.341t-.192-.293q-.074-.187-.074-.478 0-.419.106-.613.108-.193.347-.301.238-.11.576-.11.37 0 .629.119.261.119.345.301.085.18.085.616zm2.533-1.104v2.438q0 .414-.027.583-.027.167-.16.345-.133.176-.351.268-.217.09-.512.09-.327 0-.577-.108t-.374-.282-.146-.365q-.023-.193-.023-.81v-2.16h.949v2.736q0 .239.025.307.027.065.106.065.09 0 .114-.072.027-.075.027-.347v-2.688zm2.535 2.136q0 .55-.027.78-.025.227-.162.416-.136.19-.368.29-.232.102-.54.102-.293 0-.528-.094-.232-.097-.374-.289t-.169-.417-.027-.788v-.624q0-.55.025-.778.027-.23.162-.419.138-.189.37-.29.232-.102.54-.102.294 0 .526.097.234.095.376.286.142.192.169.417t.027.789zm-.949-1.199q0-.254-.03-.324-.026-.072-.114-.072-.074 0-.115.058-.038.056-.038.338v1.704q0 .317.025.392.027.074.121.074.097 0 .124-.086t.027-.407zm3.517.654h-.948v-.636q0-.277-.032-.345-.03-.07-.133-.07-.117 0-.148.084-.032.083-.032.36v1.695q0 .266.032.347.031.081.142.081.105 0 .137-.081.034-.081.034-.38v-.458h.948v.142q0 .565-.08.802-.08.236-.355.414-.272.178-.673.178-.417 0-.687-.15-.27-.152-.359-.417-.088-.269-.088-.805v-1.066q0-.394.027-.59.027-.198.16-.38.136-.183.372-.287.239-.106.548-.106.419 0 .691.163.273.162.359.405.085.241.085.753zm.34-1.591h1.582v.73h-.633v.692h.593v.694h-.593v.802h.696v.73h-1.644zm1.918 0h.671q.672 0 .908.052.24.051.388.265.151.212.151.679 0 .426-.106.572t-.417.176q.282.07.379.187t.12.216q.024.097.024.539v.962h-.881v-1.213q0-.292-.047-.362-.045-.07-.241-.07v1.645h-.949zm.949.624v.811q.16 0 .223-.043.065-.045.065-.286v-.2q0-.174-.063-.228-.06-.054-.225-.054m3.174-.624.543 3.648h-.97l-.048-.656h-.34l-.057.656h-.982l.482-3.648zm-.502 2.345q-.072-.62-.144-1.53-.145 1.046-.18 1.53z" aria-label="SUOCERA" style="font-size:4.61444px;line-height:3.9px;font-family:Impact;-inkscape-font-specification:Impact;text-align:center;letter-spacing:0;word-spacing:0;text-anchor:middle;fill:#191f27;stroke-width:1.30803;stroke-linecap:round;stroke-linejoin:round;stroke-miterlimit:3.3;paint-order:fill markers stroke" transform="translate(263.055 -1088.125)scale(1.58766)"/><g aria-label="Non hai poteri particolari, ma nemmeno la morte può impedirti di parlare" style="font-size:6px;line-height:6.4252px;font-family:Impact;-inkscape-font-specification:Impact;letter-spacing:0;word-spacing:0;white-space:pre;shape-padding:.922368;fill:#191f27;stroke-width:4.53543;stroke-linecap:round;stroke-linejoin:round;stroke-miterlimit:3.3;paint-order:fill markers stroke"><path d="M-420.586-934.609h-.41q0-.05-.961-1.403-1.005-1.421-1.146-1.793h-.029q.053.706.053 1.21 0 .984.044 1.986h-.492q.05-.952.05-2.004 0-1.034-.05-1.81h.562q0 .082.885 1.335.926 1.319 1.055 1.717h.029q-.05-.715-.05-1.213 0-1.084-.041-1.84h.501q-.05.777-.05 1.811 0 1.052.05 2.004m3.612-1.477q0 .75-.43 1.172-.431.42-1.014.42-.545 0-.937-.373-.39-.372-.39-1.049 0-.756.43-1.18.434-.425 1.017-.425.545 0 .935.378.39.375.39 1.057m-.506.103q0-.457-.232-.812-.228-.357-.653-.357-.422 0-.65.337-.226.337-.226.782 0 .46.228.815.232.354.66.354.421 0 .647-.337.226-.34.226-.782m3.665 1.374h-.534q.065-.77.065-1.682 0-.45-.185-.615-.181-.167-.521-.167-.416 0-.768.302 0 .999.012 2.162h-.533q.05-.996.05-1.441 0-.686-.13-1.33l.516-.074.056.358h.023q.434-.393.93-.393.485 0 .752.217.267.214.267.765 0 .055-.006.22-.006.163-.006.219 0 .49.011 1.459zm4.55 0h-.534q.065-.77.065-1.658 0-.475-.18-.639-.175-.167-.488-.167-.44 0-.824.302 0 1.6.024 2.162h-.516q.027-.773.027-2.186 0-1.236-.085-1.936l.556-.03q-.023.894-.023 1.659h.017q.44-.387.964-.387.47 0 .733.22.263.217.263.764 0 .056-.006.22-.006.161-.006.284 0 .422.012 1.392zm2.967 0-.46.018q-.035-.144-.035-.273h-.03q-.36.328-.98.328-.338 0-.58-.196-.244-.2-.244-.565 0-.452.38-.724.382-.276 1.416-.29.009-.07.009-.161 0-.36-.193-.48-.19-.12-.58-.12-.46 0-.906.113l.05-.404q.44-.126 1.01-.126.522 0 .806.217.285.214.285.732 0 .138-.015.501-.012.36-.012.48 0 .534.08.95zm-.518-.568q-.015-.446-.015-.8-.55 0-.838.082-.48.146-.48.56 0 .398.562.398.484 0 .77-.24m1.793.568h-.53q.04-.586.04-1.339 0-.847-.102-1.42l.586-.08q-.036.612-.036 1.5 0 .703.041 1.339m.123-3.662q0 .15-.097.26-.097.109-.273.109-.149 0-.234-.094-.082-.096-.082-.231 0-.147.1-.255t.275-.108q.144 0 .226.096.085.094.085.223m4.61 2.156q0 .633-.362 1.11-.36.475-1.005.475-.54 0-.71-.193h-.029q0 .814.018 1.453h-.55q.067-.78.067-1.925 0-1.412-.147-2.186l.516-.073.044.29h.03q.283-.33.919-.33.56 0 .885.41.325.407.325.97m-.52.07q0-.433-.23-.74-.228-.311-.64-.311-.528 0-.757.319.047.984.047 1.69.238.2.619.2.483 0 .72-.34.24-.34.24-.818m3.872-.04q0 .75-.43 1.171-.43.42-1.014.42-.545 0-.937-.373-.39-.372-.39-1.049 0-.756.43-1.18.434-.425 1.017-.425.545 0 .935.378.39.375.39 1.057m-.506.102q0-.457-.232-.812-.228-.357-.653-.357-.422 0-.65.337-.226.337-.226.782 0 .46.228.815.232.354.66.354.421 0 .647-.337.226-.34.226-.782m2.789.97-.035.38q-.232.086-.437.086-.527 0-.72-.267-.194-.27-.194-.961 0-.448.006-1.169-.164 0-.483.018l.017-.425q.278.017.498.017 0-.175.03-.835l.46-.046q-.05.615-.05.881.287 0 .843-.029l-.02.437q-.527-.018-.847-.018-.006.442-.006.996 0 .604.126.8.13.193.475.193.114 0 .337-.058m2.95-1.316q0 .123-.012.34l-2.012.035q.029.428.33.718.302.287.8.287.446 0 .835-.108l-.05.413q-.287.114-.829.114-.761 0-1.163-.416-.398-.416-.398-1.014 0-.638.363-1.098.366-.463.982-.463.565 0 .858.334.296.334.296.858m-.49.006q0-.823-.688-.823-.703 0-.829.855zm2.936-1.07-.132.467q-.228-.091-.424-.091-.551 0-.715.524 0 1.348.017 1.884h-.518q.047-.929.047-1.441 0-.695-.138-1.33l.513-.074q.055.323.055.431h.024q.316-.466.738-.466.223 0 .533.097m.888 2.784h-.53q.04-.586.04-1.339 0-.846-.102-1.42l.586-.08q-.035.613-.035 1.5 0 .703.04 1.34m.123-3.662q0 .15-.097.26-.096.11-.272.11-.15 0-.235-.095-.082-.096-.082-.231 0-.146.1-.255.1-.108.275-.108.144 0 .226.096.085.094.085.223m4.611 2.156q0 .633-.363 1.11-.36.475-1.005.475-.539 0-.709-.193h-.03q0 .814.018 1.453h-.55q.067-.78.067-1.925 0-1.412-.146-2.185l.515-.074.044.29h.03q.284-.33.92-.33.559 0 .884.41.325.407.325.97m-.521.07q0-.433-.229-.74-.228-.311-.641-.311-.528 0-.756.32.047.983.047 1.69.237.199.618.199.483 0 .72-.34.24-.34.24-.817m3.398 1.436-.46.018q-.035-.144-.035-.273h-.03q-.36.328-.98.328-.337 0-.58-.196-.244-.2-.244-.565 0-.452.381-.724.38-.275 1.415-.29.01-.07.01-.161 0-.36-.194-.48-.19-.12-.58-.12-.46 0-.906.114l.05-.405q.44-.126 1.01-.126.522 0 .807.217.284.214.284.732 0 .138-.015.501-.012.36-.012.48 0 .534.08.95zm-.518-.568q-.015-.446-.015-.8-.55 0-.838.082-.48.146-.48.56 0 .398.562.398.484 0 .77-.24m3.032-2.215-.132.466q-.228-.091-.425-.091-.55 0-.715.524 0 1.348.018 1.884h-.519q.047-.929.047-1.441 0-.695-.137-1.33l.512-.074q.056.323.056.431h.023q.317-.466.739-.466.222 0 .533.097m1.963 2.379-.035.38q-.232.086-.437.086-.527 0-.72-.267-.194-.27-.194-.96 0-.45.006-1.17-.164 0-.483.018l.017-.425q.279.018.498.018 0-.176.03-.835l.46-.047q-.05.615-.05.882.287 0 .843-.03l-.02.437q-.527-.018-.847-.018-.006.443-.006.996 0 .604.126.8.13.193.475.193.114 0 .337-.058m1.078.404h-.53q.04-.586.04-1.339 0-.846-.102-1.42l.586-.08q-.035.613-.035 1.5 0 .703.041 1.34m.123-3.662q0 .15-.097.26-.096.11-.272.11-.15 0-.235-.095-.082-.096-.082-.231 0-.146.1-.255.1-.108.275-.108.144 0 .226.096.085.094.085.223m2.783 3.214-.03.392q-.236.135-.635.135-.759 0-1.16-.419t-.401-1.01q0-.627.421-1.079.422-.45 1.117-.45.348 0 .568.07l-.08.46q-.307-.115-.623-.115-.416 0-.662.29t-.246.727q0 .474.293.79t.829.317q.22 0 .61-.108m3.255-1.028q0 .75-.43 1.171-.431.42-1.014.42-.545 0-.938-.373-.39-.372-.39-1.049 0-.755.431-1.18.434-.425 1.017-.425.545 0 .934.378.39.375.39 1.058m-.507.102q0-.457-.231-.811-.229-.358-.654-.358-.421 0-.65.337-.226.337-.226.782 0 .46.229.815.231.354.66.354.421 0 .647-.337.225-.34.225-.782m1.75 1.374h-.563q.052-.967.052-2.185 0-1.184-.085-1.937l.595-.03q-.056.798-.056 1.967 0 1.204.056 2.185m3.008 0-.46.018q-.035-.144-.035-.273h-.03q-.36.328-.98.328-.338 0-.581-.196-.243-.2-.243-.565 0-.452.38-.724.382-.275 1.416-.29.009-.07.009-.161 0-.36-.194-.48-.19-.12-.58-.12-.46 0-.905.114l.05-.405q.44-.126 1.01-.126.522 0 .806.217.284.214.284.732 0 .138-.014.501-.012.36-.012.48 0 .534.08.95zm-.519-.568q-.014-.446-.014-.8-.551 0-.838.082-.48.146-.48.56 0 .398.562.398.483 0 .77-.24m3.033-2.215-.132.466q-.229-.091-.425-.091-.55 0-.715.524 0 1.348.018 1.884h-.519q.047-.929.047-1.441 0-.695-.138-1.33l.513-.074q.056.323.056.431h.023q.317-.466.739-.466.222 0 .533.097m.887 2.783h-.53q.041-.586.041-1.339 0-.846-.102-1.42l.586-.08q-.036.613-.036 1.5 0 .703.041 1.34m.123-3.662q0 .15-.096.26-.097.11-.273.11-.15 0-.234-.095-.082-.096-.082-.231 0-.146.1-.255.1-.108.275-.108.143 0 .225.096.085.094.085.223m1.41 3.328q0 .39-.203.73-.202.342-.618.706l-.175-.194q.445-.498.445-.92-.252-.1-.252-.369 0-.17.105-.296.106-.129.314-.129.17 0 .275.138.109.138.109.334m5.736-1.362q0-.469-.164-.618-.161-.153-.533-.153-.314 0-.648.308-.011.357-.011.7 0 .49.017 1.46h-.533q.064-.836.064-1.697 0-.469-.164-.618-.16-.153-.518-.153-.366 0-.686.308 0 .929.012 2.16h-.533q.055-.997.055-1.442 0-.677-.131-1.33l.515-.074.053.355h.03q.38-.39.846-.39.694 0 .893.39h.033q.442-.39.873-.39.492 0 .744.217t.252.765q0 .055-.006.22-.006.163-.006.22 0 .488.012 1.458h-.534q.068-.767.068-1.696zm3.434 1.696-.46.018q-.036-.144-.036-.273h-.029q-.36.328-.981.328-.337 0-.58-.196-.244-.2-.244-.565 0-.452.381-.724.381-.275 1.415-.29.01-.07.01-.161 0-.36-.194-.48-.19-.12-.58-.12-.46 0-.905.114l.05-.405q.439-.126 1.01-.126.522 0 .806.217.284.214.284.732 0 .138-.015.501-.011.36-.011.48 0 .534.079.95zm-.519-.568q-.015-.446-.015-.8-.55 0-.838.082-.48.146-.48.56 0 .398.562.398.484 0 .77-.24M-421.21-927.275h-.533q.064-.77.064-1.682 0-.45-.184-.615-.182-.167-.522-.167-.416 0-.767.302 0 .999.011 2.162h-.533q.05-.996.05-1.441 0-.686-.129-1.33l.516-.074.055.358h.024q.433-.393.928-.393.487 0 .753.217.267.214.267.765 0 .055-.006.22-.006.163-.006.22 0 .488.012 1.458zm3.17-1.72q0 .123-.012.34l-2.012.035q.029.428.33.718.302.287.8.287.446 0 .835-.108l-.05.413q-.287.114-.829.114-.761 0-1.163-.416-.398-.416-.398-1.014 0-.638.363-1.098.366-.463.982-.463.565 0 .858.334.296.334.296.858m-.49.006q0-.823-.688-.823-.703 0-.829.856zm4.846.018q0-.469-.164-.618-.16-.153-.533-.153-.313 0-.647.308-.012.357-.012.7 0 .49.018 1.46h-.534q.065-.836.065-1.697 0-.469-.164-.618-.161-.153-.519-.153-.366 0-.685.308 0 .929.011 2.16h-.533q.056-.997.056-1.442 0-.677-.132-1.33l.516-.074.052.355h.03q.38-.39.846-.39.695 0 .894.39h.032q.442-.39.873-.39.492 0 .744.217t.252.765q0 .055-.006.22-.006.164-.006.22 0 .488.012 1.458h-.533q.067-.767.067-1.696zm4.913 0q0-.469-.164-.618-.16-.153-.533-.153-.313 0-.647.308-.012.357-.012.7 0 .49.018 1.46h-.534q.065-.836.065-1.697 0-.469-.164-.618-.161-.153-.519-.153-.366 0-.685.308 0 .929.011 2.16h-.533q.056-.997.056-1.442 0-.677-.132-1.33l.516-.074.052.355h.03q.38-.39.846-.39.695 0 .894.39h.032q.443-.39.873-.39.492 0 .744.217t.252.765q0 .055-.006.22-.006.164-.006.22 0 .488.012 1.458h-.533q.067-.767.067-1.696zm3.636-.024q0 .124-.011.34l-2.013.036q.03.427.33.717.303.287.8.287.446 0 .836-.108l-.05.413q-.287.114-.83.114-.761 0-1.162-.416-.399-.416-.399-1.013 0-.639.363-1.099.367-.463.982-.463.565 0 .858.334.296.334.296.859m-.489.006q0-.823-.689-.823-.703 0-.829.856zm3.647 1.714h-.533q.065-.77.065-1.681 0-.451-.185-.616-.181-.167-.521-.167-.416 0-.768.302 0 1 .012 2.162h-.533q.05-.996.05-1.441 0-.686-.13-1.33l.516-.073.056.357h.023q.434-.392.929-.392.486 0 .753.216.266.214.266.765 0 .056-.006.22t-.006.22q0 .489.012 1.458zm3.443-1.476q0 .75-.43 1.172-.432.419-1.015.419-.544 0-.937-.372-.39-.373-.39-1.05 0-.755.431-1.18.434-.425 1.017-.425.545 0 .934.378.39.375.39 1.058m-.507.102q0-.457-.231-.811-.229-.358-.654-.358-.422 0-.65.337-.226.337-.226.783 0 .46.229.814.231.354.659.354.422 0 .647-.336.226-.34.226-.783m3.05 1.374h-.563q.053-.966.053-2.185 0-1.184-.085-1.937l.595-.029q-.056.797-.056 1.966 0 1.204.056 2.185m3.009 0-.46.018q-.036-.144-.036-.273h-.029q-.36.329-.981.329-.337 0-.58-.197-.244-.199-.244-.565 0-.451.381-.724.381-.275 1.415-.29.01-.07.01-.16 0-.361-.194-.481-.19-.12-.58-.12-.46 0-.905.114l.05-.405q.439-.126 1.01-.126.522 0 .806.217.284.214.284.733 0 .137-.015.5-.011.361-.011.481 0 .533.079.95zm-.519-.568q-.015-.445-.015-.8-.55 0-.837.082-.48.147-.48.56 0 .398.562.398.483 0 .77-.24m6.243-1.128q0-.469-.164-.618-.161-.152-.533-.152-.314 0-.648.307-.011.358-.011.7 0 .49.017 1.46h-.533q.065-.836.065-1.697 0-.469-.164-.618-.162-.152-.519-.152-.366 0-.686.307 0 .929.012 2.16h-.533q.056-.997.056-1.442 0-.677-.132-1.33l.515-.073.053.354h.03q.38-.39.846-.39.694 0 .894.39h.032q.442-.39.873-.39.492 0 .744.217t.252.765q0 .056-.006.22t-.006.22q0 .489.012 1.458h-.533q.067-.767.067-1.696zm3.908.22q0 .75-.43 1.172-.43.419-1.014.419-.545 0-.937-.372-.39-.373-.39-1.05 0-.755.43-1.18.434-.425 1.017-.425.545 0 .935.378.39.375.39 1.058m-.506.102q0-.457-.232-.811-.228-.358-.653-.358-.422 0-.65.337-.226.337-.226.783 0 .46.228.814.232.354.66.354.421 0 .647-.336.226-.34.226-.783m2.953-1.409-.132.466q-.229-.09-.425-.09-.55 0-.715.524 0 1.347.018 1.883h-.519q.047-.928.047-1.441 0-.694-.138-1.33l.513-.073q.056.322.056.43h.023q.317-.465.739-.465.222 0 .533.096m1.963 2.38-.036.38q-.231.085-.436.085-.527 0-.72-.267-.194-.27-.194-.96 0-.449.006-1.17-.164 0-.484.018l.018-.425q.278.018.498.018 0-.176.03-.835l.46-.047q-.05.615-.05.882.287 0 .843-.03l-.02.437q-.528-.018-.847-.018-.006.443-.006.997 0 .603.126.8.129.193.475.193.114 0 .337-.059m2.95-1.316q0 .123-.012.34l-2.013.035q.03.427.331.717.302.288.8.288.446 0 .835-.109l-.05.413q-.287.114-.829.114-.761 0-1.163-.416-.398-.416-.398-1.013 0-.639.363-1.099.366-.463.981-.463.566 0 .859.334.296.334.296.859m-.49.006q0-.824-.688-.824-.703 0-.83.856zm5.125.208q0 .632-.364 1.11-.36.475-1.005.475-.539 0-.709-.194h-.029q0 .815.018 1.453h-.551q.067-.779.067-1.924 0-1.413-.146-2.186l.515-.073.044.29h.03q.284-.331.92-.331.56 0 .884.41.326.407.326.97m-.522.07q0-.434-.228-.741-.229-.31-.642-.31-.527 0-.756.319.047.984.047 1.69.237.2.618.2.484 0 .72-.34.241-.34.241-.818m3.668 1.433-.454.017q-.041-.164-.041-.27h-.03q-.389.329-.946.329-.507 0-.738-.243-.228-.247-.228-.988 0-.105.006-.313t.006-.284q0-.431-.05-1.014l.545-.02q-.035.565-.035.966 0 .923.117 1.204.12.279.536.279.469 0 .773-.235 0-1.629-.029-2.194l.527-.02q-.023.55-.023 1.523 0 .624.064 1.263zm3.419-1.474q0 .75-.43 1.172-.431.419-1.014.419-.545 0-.938-.372-.39-.372-.39-1.05 0-.755.431-1.18.434-.425 1.017-.425.545 0 .934.378.39.375.39 1.058m-.507.102q0-.457-.231-.811-.229-.357-.654-.357-.422 0-.65.336-.226.337-.226.783 0 .46.229.814.231.355.66.355.42 0 .647-.337.225-.34.225-.783m-.574-1.807h-.352q0-.047-.404-.48-.404-.434-.404-.47h.633q0 .033.263.47.264.433.264.48M-423.161-919.94h-.53q.04-.587.04-1.34 0-.846-.102-1.42l.586-.08q-.035.612-.035 1.5 0 .703.04 1.34m.123-3.663q0 .15-.097.26-.096.11-.272.11-.15 0-.235-.095-.082-.096-.082-.231 0-.147.1-.255t.275-.108q.144 0 .226.096.085.094.085.223m4.333 1.966q0-.469-.164-.618-.161-.153-.533-.153-.314 0-.648.308-.012.357-.012.7 0 .49.018 1.46h-.533q.064-.836.064-1.697 0-.469-.164-.618-.16-.153-.518-.153-.366 0-.686.308 0 .929.012 2.16h-.533q.055-.997.055-1.442 0-.677-.131-1.33l.515-.074.053.355h.03q.38-.39.846-.39.694 0 .893.39h.033q.442-.39.873-.39.492 0 .744.217t.252.765q0 .055-.006.22-.006.163-.006.219 0 .49.012 1.459h-.534q.068-.768.068-1.696zm3.89.19q0 .633-.363 1.11-.36.475-1.005.475-.539 0-.709-.193h-.029q0 .814.018 1.453h-.551q.067-.78.067-1.925 0-1.412-.146-2.185l.515-.074.044.29h.03q.284-.33.92-.33.56 0 .884.41.326.407.326.97m-.52.07q0-.433-.23-.74-.228-.311-.641-.311-.527 0-.756.32.047.983.047 1.69.237.199.618.199.484 0 .72-.34.241-.34.241-.818m3.6-.284q0 .123-.012.34l-2.013.035q.03.428.331.718.302.287.8.287.445 0 .835-.108l-.05.413q-.287.114-.829.114-.762 0-1.163-.416-.398-.416-.398-1.013 0-.64.363-1.1.366-.462.981-.462.566 0 .859.334.296.334.296.858m-.49.006q0-.823-.688-.823-.703 0-.83.856zm3.692 1.711-.437.015q-.023-.126-.023-.267h-.032q-.308.334-.914.334-.557 0-.888-.404-.328-.404-.328-.976 0-.647.366-1.116t1.031-.469q.475 0 .68.194h.023q0-.727-.04-1.427l.556-.02q-.056.744-.056 1.948 0 1.224.062 2.188m-.472-.577q0-.911-.05-1.755-.237-.196-.591-.196-.496 0-.742.331-.246.328-.246.826 0 .445.232.75.234.305.647.305.519 0 .75-.26m1.778.58h-.53q.041-.586.041-1.339 0-.846-.102-1.42l.586-.08q-.036.613-.036 1.5 0 .703.041 1.34m.123-3.662q0 .15-.096.26-.097.11-.273.11-.15 0-.234-.094-.082-.097-.082-.232 0-.146.1-.255.1-.108.275-.108.143 0 .226.096.085.094.085.223m2.423.879-.132.466q-.228-.091-.424-.091-.551 0-.715.524 0 1.348.017 1.884h-.518q.047-.928.047-1.441 0-.695-.138-1.33l.513-.074q.055.323.055.431h.024q.316-.466.738-.466.223 0 .533.097m1.963 2.379-.035.38q-.231.086-.436.086-.528 0-.721-.267-.194-.27-.194-.96 0-.449.006-1.17-.164 0-.483.018l.018-.425q.278.018.498.018 0-.176.029-.835l.46-.047q-.05.615-.05.882.287 0 .844-.03l-.02.437q-.528-.018-.847-.018-.006.443-.006.996 0 .604.126.8.129.194.474.194.115 0 .337-.06m1.078.404h-.53q.041-.586.041-1.339 0-.846-.102-1.42l.585-.08q-.035.613-.035 1.5 0 .703.041 1.34m.123-3.662q0 .15-.096.26-.097.11-.273.11-.15 0-.234-.094-.082-.097-.082-.232 0-.146.1-.255.1-.108.275-.108.143 0 .225.096.085.094.085.223m4.48 3.66-.437.014q-.023-.126-.023-.267h-.032q-.308.334-.914.334-.557 0-.888-.404-.328-.404-.328-.976 0-.647.366-1.116t1.031-.469q.475 0 .68.194h.023q0-.727-.04-1.427l.556-.02q-.056.744-.056 1.948 0 1.224.062 2.188m-.472-.578q0-.911-.05-1.755-.237-.196-.591-.196-.496 0-.742.331-.246.328-.246.826 0 .445.232.75.234.305.647.305.519 0 .75-.26m1.779.58h-.53q.04-.586.04-1.339 0-.846-.102-1.42l.586-.08q-.035.613-.035 1.5 0 .703.04 1.34m.123-3.662q0 .15-.097.26t-.273.11q-.149 0-.234-.094-.082-.097-.082-.232 0-.146.1-.255.1-.108.275-.108.144 0 .226.096.085.094.085.223m4.61 2.156q0 .633-.362 1.11-.36.475-1.005.475-.54 0-.71-.193h-.029q0 .814.018 1.453h-.55q.067-.78.067-1.925 0-1.412-.147-2.185l.516-.074.044.29h.03q.283-.33.92-.33.559 0 .884.41.325.407.325.97zm-.52.07q0-.433-.23-.74-.228-.311-.64-.311-.528 0-.757.32.047.984.047 1.69.238.199.619.199.483 0 .72-.34.24-.34.24-.817m3.398 1.436-.46.018q-.035-.144-.035-.273h-.03q-.36.328-.981.328-.337 0-.58-.196-.243-.2-.243-.565 0-.451.38-.724.381-.275 1.416-.29.009-.07.009-.161 0-.36-.194-.48-.19-.12-.58-.12-.46 0-.905.114l.05-.405q.44-.126 1.01-.126.522 0 .806.217.284.214.284.733 0 .137-.014.5-.012.36-.012.481 0 .533.08.95zm-.519-.568q-.014-.445-.014-.8-.551 0-.838.082-.48.147-.48.56 0 .398.562.398.483 0 .77-.24m3.033-2.215-.132.466q-.229-.091-.425-.091-.55 0-.715.524 0 1.348.018 1.884h-.519q.047-.929.047-1.441 0-.695-.138-1.33l.513-.074q.056.323.056.431h.023q.316-.466.738-.466.223 0 .534.097m.922 2.783h-.562q.053-.967.053-2.185 0-1.184-.085-1.937l.594-.03q-.055.798-.055 1.967 0 1.204.055 2.185m3.01 0-.46.018q-.036-.144-.036-.273h-.03q-.36.328-.98.328-.338 0-.58-.196-.244-.2-.244-.565 0-.451.38-.724.382-.275 1.416-.29.009-.07.009-.161 0-.36-.193-.48-.19-.12-.58-.12-.46 0-.906.114l.05-.405q.44-.126 1.01-.126.522 0 .806.217.285.214.285.733 0 .137-.015.5-.012.36-.012.481 0 .533.08.95zm-.52-.568q-.014-.445-.014-.8-.55 0-.838.082-.48.147-.48.56 0 .398.562.398.484 0 .77-.24m3.033-2.215-.132.466q-.229-.091-.425-.091-.55 0-.715.524 0 1.348.018 1.884h-.519q.047-.929.047-1.441 0-.695-.137-1.33l.512-.074q.056.323.056.431h.023q.317-.466.739-.466.222 0 .533.097m2.76 1.063q0 .124-.012.34l-2.013.036q.03.427.331.717.302.287.8.287.445 0 .835-.108l-.05.413q-.287.114-.829.114-.762 0-1.163-.416-.398-.416-.398-1.013 0-.639.363-1.099.366-.463.981-.463.566 0 .859.334.296.334.296.859m-.49.006q0-.823-.688-.823-.703 0-.83.856z" style="font-family:Candara;-inkscape-font-specification:Candara" transform="translate(241.697 594.607)scale(.52707)"/></g><g style="filter:url(#a)" transform="translate(2.284 -353.364)scale(1.58766)"><path d="m26.847 267.56 2.269 8.63" style="fill:#191f27;fill-opacity:1;stroke:#191f27;stroke-width:.321;stroke-linecap:round;stroke-linejoin:round;stroke-miterlimit:3.3;stroke-dasharray:none;stroke-dashoffset:11.1594;stroke-opacity:1;paint-order:normal"/><path d="M21.7 227.306q.255-.731 1.079-.57.08-1.275.969-1.191.012-.577.478-.766-.25-.647.268-.837c-.092-.32-.42-.656.013-.94" style="fill:none;fill-opacity:1;stroke:#191f27;stroke-width:.321;stroke-linecap:round;stroke-linejoin:round;stroke-miterlimit:3.3;stroke-dasharray:none;stroke-dashoffset:11.1594;stroke-opacity:1;paint-order:normal" transform="translate(-3.368 46.024)"/><path d="m23.105 228.12-1.169-4.947 2.538 3.321M25.456 225.64l-3.52-2.467 3.929 1.181" style="fill:none;fill-opacity:1;stroke:#191f27;stroke-width:.321;stroke-linecap:round;stroke-linejoin:round;stroke-miterlimit:3.3;stroke-dasharray:none;stroke-dashoffset:11.1594;stroke-opacity:1;paint-order:normal" transform="translate(-3.368 46.024)"/><path d="M21.607 228.914q.535-.87 1.498-.794.073-1.541 1.369-1.626-.17-.807.982-.853-.64-.958.409-1.287-.63-.692.097-1.484M21.775 225.985c.174-.38.409-.542.746-.339.07-.512.327-.735.684-.812-.061-.296.054-.473.28-.574-.148-.236-.057-.417.207-.559-.081-.225-.17-.45.021-.69M21.847 224.72c.13-.192.279-.184.44-.066.06-.326.156-.494.439-.447-.023-.231.088-.3.26-.298-.083-.206-.032-.322.08-.396-.05-.153-.152-.314.044-.453" style="fill:none;fill-opacity:1;stroke:#191f27;stroke-width:.321;stroke-linecap:round;stroke-linejoin:round;stroke-miterlimit:3.3;stroke-dasharray:none;stroke-dashoffset:11.1594;stroke-opacity:1;paint-order:normal" transform="translate(-3.368 46.024)"/><path d="m18.569 269.197-.515 8.98" style="fill:#191f27;fill-opacity:1;stroke:#191f27;stroke-width:.321;stroke-linecap:round;stroke-linejoin:round;stroke-miterlimit:3.3;stroke-dasharray:none;stroke-dashoffset:11.1594;stroke-opacity:1;paint-order:normal"/><path d="M17.865 269.861q4.918.802 10.584-2.513l-1.886-12.866c-3.44.617-6.084 1.056-9.898 1.3z" style="fill:#971228;fill-opacity:1;stroke:#191f27;stroke-width:.321;stroke-linecap:round;stroke-linejoin:round;stroke-miterlimit:3.3;stroke-dasharray:none;stroke-dashoffset:11.1594;stroke-opacity:1;paint-order:normal"/><path d="M29.046 268.94s-2.25-5.418-2.807-8.279c-.313-1.61-.917-3.4-.28-4.91.184-.439.605-1 1.075-.936.814.111 1.357 2.058 1.357 2.058l1.87 4.724q-.093 4.373-1.215 7.343M17.865 269.861s.14-2.824.066-4.233c-.096-1.83-.266-3.668-.661-5.457-.293-1.324-.605-4.39-.605-4.39s-2.193 3.21-2.735 4.655c-.468 1.246-.993 3.87-.993 3.87zM12.937 264.305l-1.058 4.829M30.246 262.137l1.675 3.326" style="fill:#191f27;fill-opacity:1;stroke:#191f27;stroke-width:.321;stroke-linecap:round;stroke-linejoin:round;stroke-miterlimit:3.3;stroke-dasharray:none;stroke-dashoffset:11.1594;stroke-opacity:1;paint-order:normal"/><path d="m12.995 267.96-.058-3.655 1.08 3.526M12.937 264.305l1.865 3.146" style="fill:none;fill-opacity:1;stroke:#191f27;stroke-width:.321;stroke-linecap:round;stroke-linejoin:round;stroke-miterlimit:3.3;stroke-dasharray:none;stroke-dashoffset:11.1594;stroke-opacity:1;paint-order:normal"/><path d="M12.163 267.836q.391-.41.832.124.445-.632 1.021-.129c.182-.218.177-.65.786-.38q.056-.445.53-.445M12.347 266.998q.39-.325.634.04.318-.579.751-.135.155-.484.602-.242-.024-.406.456-.267M12.53 266.162q.274-.15.439.136.197-.385.545-.11.166-.335.465-.125 0-.265.296-.25M13.822 267.692l.256 4.71" style="fill:none;fill-opacity:1;stroke:#191f27;stroke-width:.321;stroke-linecap:round;stroke-linejoin:round;stroke-miterlimit:3.3;stroke-dasharray:none;stroke-dashoffset:11.1594;stroke-opacity:1;paint-order:normal"/><path d="M14.615 272.427a.553.342 0 0 1-.554.342.553.342 0 0 1-.553-.342.553.342 0 0 1 .553-.342.553.342 0 0 1 .554.342" style="fill:#191f27;stroke:#191f27;stroke-width:.321;stroke-linecap:round;stroke-linejoin:round;stroke-miterlimit:3.3;stroke-dashoffset:11.1594"/><path d="m14.463 272.662.557-.162.193.299M14.49 272.211l.62-.118.231.29M14.254 271.963l.503-.328.225.206M14.463 272.662l.358.341M13.529 272.68l-.557-.162-.193.298M13.501 272.229l-.657-.205-.152.32M13.738 271.98l-.503-.327-.147.239M13.529 272.68l-.358.34" style="fill:none;fill-opacity:1;stroke:#191f27;stroke-width:.321;stroke-linecap:round;stroke-linejoin:round;stroke-miterlimit:3.3;stroke-dasharray:none;stroke-dashoffset:11.1594;stroke-opacity:1;paint-order:normal"/><path d="M26.094 250.305a4.864 4.126 0 0 1-4.864 4.126 4.864 4.126 0 0 1-4.865-4.126 4.864 4.126 0 0 1 4.865-4.126 4.864 4.126 0 0 1 4.864 4.126" style="display:inline;fill:#fff;stroke:#192027;stroke-width:.321;stroke-linecap:round;stroke-linejoin:round"/><path d="M20.203 249.695a1.096.91 0 0 1-1.096.911 1.096.91 0 0 1-1.096-.91 1.096.91 0 0 1 1.096-.912 1.096.91 0 0 1 1.096.911" style="display:inline;fill:#192027;stroke:#192027;stroke-width:.512591;stroke-linecap:round;stroke-linejoin:round"/><path d="M24.538 250.18a1.111.924 0 0 1-1.111.923 1.111.924 0 0 1-1.111-.924 1.111.924 0 0 1 1.11-.923 1.111.924 0 0 1 1.112.923" style="display:inline;fill:#192027;stroke:#192027;stroke-width:.519846;stroke-linecap:round;stroke-linejoin:round"/><path d="M20.78 251.835c.067.122.32.151.415.048.146-.161.08-.615-.137-.64s-.385.402-.279.592" style="fill:#192027;fill-opacity:1;stroke:#191f27;stroke-width:.321;stroke-linecap:round;stroke-linejoin:round;stroke-miterlimit:3.3;stroke-dasharray:none;stroke-dashoffset:11.1594;stroke-opacity:1;paint-order:normal"/><path d="M21.454 241.318a3 3 0 0 0-.243.003c-1.237.083-2.184 1.256-3.017 2.175-1.428 1.576-2.514 3.506-3.204 5.519-.528 1.54-1.247 3.324-.654 4.84.366.939 1.684 1.618 2.329 1.926.32.153.98.684 1.884 1.019.933.345 2.947.468 2.947.468s-1.08.872-1.286 1.496c-.212.638.14 2.011.14 2.011s1.064-.752 1.356-1.309c.29-.553.304-1.847.304-1.847s.443.693.795.865c.436.212 1.45.116 1.45.116s-.271-.78-.56-1.052c-.288-.27-1.077-.49-1.077-.49l3.316-2.493.63-.083s1.937-1.386 2.224-2.45c.439-1.624-.342-3.41-1.052-4.935-.702-1.505-1.793-2.86-3.064-3.929-.938-.789-2.012-1.8-3.218-1.85zm-.224 4.861c2.686 0 3.484 2.292 4.863 4.126 0 2.279-2.177 4.126-4.863 4.126s-4.864-1.847-4.865-4.126c1.112-1.724 2.178-4.126 4.865-4.126m2.79 8.637c-.428.513-.901.968-1.378 1.212-.386.198-.854.207-1.287.187-.897-.04-1.776-.321-2.619-.631l-.138-.056c1.92.133 3.847.293 5.422-.711" style="fill:#971228;fill-opacity:1;stroke:#191f27;stroke-width:.321;stroke-linecap:round;stroke-linejoin:round;stroke-miterlimit:3.3;stroke-dasharray:none;stroke-dashoffset:11.1594;stroke-opacity:1;paint-order:normal"/><path d="M20.537 253.82c-.067-.247-.395-.366-.537-.197-.221.266-.214 1.136.066 1.238s.576-.656.47-1.042M21.975 253.82c.067-.247.395-.366.537-.197.221.266.215 1.136-.066 1.238-.28.102-.576-.656-.47-1.042M21.581 253.795c-.114-.248-.494-.323-.623-.124-.2.313-.054 1.225.272 1.29.325.064.53-.778.351-1.166" style="fill:#fff;fill-opacity:1;stroke:#191f27;stroke-width:.321;stroke-linecap:round;stroke-linejoin:round;stroke-miterlimit:3.3;stroke-dasharray:none;stroke-dashoffset:11.1594;stroke-opacity:1;paint-order:normal"/><path d="M22.593 256.917a.624.818 0 0 1-.624.818.624.818 0 0 1-.624-.818.624.818 0 0 1 .624-.818.624.818 0 0 1 .624.818" style="fill:#655347;stroke:#191f27;stroke-width:.321;stroke-linecap:round;stroke-linejoin:round;stroke-miterlimit:3.3;stroke-dashoffset:11.1594"/><path d="M24.02 254.816s1.088-.383 1.541-.726c1.062-.804 2.478-1.693 2.62-3.017.246-2.317-1.872-4.34-3.368-6.127-1.004-1.199-2.086-2.982-3.649-2.947-.988.022-1.584 1.209-2.221 1.965-1.347 1.598-2.538 3.385-3.298 5.332-.493 1.264-1.235 2.723-.771 3.999.409 1.126 2.262 2.214 3.724 2.233" style="fill:none;fill-opacity:1;stroke:#191f27;stroke-width:.321;stroke-linecap:round;stroke-linejoin:round;stroke-miterlimit:3.3;stroke-dasharray:none;stroke-dashoffset:11.1594;stroke-opacity:1;paint-order:normal"/><path d="M20.471 255.6s-3.947-1.238-4.557-2.703c-.57-1.369.182-3.064.917-4.352.973-1.708 2.247-3.853 4.345-3.985 2.029-.128 3.2 1.901 4.397 3.286.733.848 1.764 1.848 1.602 2.958-.293 2.002-4.69 4.67-4.69 4.67M21.345 256.917s-1.559-.218-2.367-.594c-.539-.25-1.646-1.035-1.646-1.035M22.499 256.484c.567-.026 2.875-2.161 2.779-2.215M20.35 260.775l1.236-3.212M20.313 258.54l1.494.673M22.805 258.484l.61-1.12M24.255 258.6l-1.787-1.191M20.068 257.125l.33-1.037M18.55 256.8l.763-1.013M17.203 256.108l.543-.638M23.762 256.197l-.516-.583M25.335 255.016l-.057-.747" style="fill:none;fill-opacity:1;stroke:#191f27;stroke-width:.321;stroke-linecap:round;stroke-linejoin:round;stroke-miterlimit:3.3;stroke-dasharray:none;stroke-dashoffset:11.1594;stroke-opacity:1;paint-order:normal"/><path d="M27.229 253.956c-.84-.267-1.688-.527-2.142-1.137M25.886 251.5c.678.56 1.504.994 2.49 1.29M26.094 250.305c.93.253 1.86.586 2.791.202M25.363 249.244c1.098-.042 2.223-.032 2.98-.757M24.315 247.747c1.243-.165 2.373-.473 3.092-1.294M23.264 246.557c1.206-.768 1.79-1.752 1.984-2.873M21.754 246.203c.593-1.388 1.17-2.783.771-4.602M20.227 246.268c-.694-1.107-1.176-2.333-.863-4.009M18.743 247.08c-.827-.537-1.27-1.41-1.39-2.563M17.595 248.368c-.814-.179-1.178-1.013-1.422-2.023M16.68 249.801c-.894-.052-1.118-.864-1.369-1.646M16.416 250.905c-.807.355-1.406.087-1.86-.615M16.833 252.071c-.906.54-1.812 1-2.718.671M17.291 252.727c-.706.905-1.499 1.554-2.382 1.93M18.091 253.457c-.417.929-1.079 1.58-1.847 2.114M18.598 255.528l.44-1.539M21.05 246.129l-.264-4.672" style="fill:none;fill-opacity:1;stroke:#191f27;stroke-width:.321;stroke-linecap:round;stroke-linejoin:round;stroke-miterlimit:3.3;stroke-dasharray:none;stroke-dashoffset:11.1594;stroke-opacity:1;paint-order:normal"/><path d="M90.828 962.379c0-.007.208-.165.461-.352a75 75 0 0 0 4.597-3.697c.294-.259.54-.47.548-.47.007 0 .191.105.408.235.218.13.529.301.691.382.163.08.292.157.288.169-.016.044-1.81 1.36-2.124 1.557-.766.482-2.478 1.281-4.08 1.905-.677.263-.789.302-.789.27M101.58 958.75a28 28 0 0 1-1.194-.414c-.013-.013.112-.13.277-.258a31 31 0 0 0 2.792-2.428l.673-.664.405.158c.427.167.985.372 1.409.517l.254.087-.285.329c-.412.477-1.945 2.001-2.587 2.573-.304.27-.557.49-.563.49zM95.98 955.899l-.348-.341.334-.42a15.7 15.7 0 0 0 1.945-3.137c.095-.207.182-.386.194-.399.012-.012.219.122.46.297.242.176.588.418.769.539l.329.218-.306.377a34 34 0 0 1-2.603 2.806l-.426.4zM103.326 953.27c-.794-.375-1.842-.931-1.842-.98 0-.015.055-.108.12-.206a14 14 0 0 0 1.284-2.46c.178-.469.39-1.252.426-1.572.02-.18.028-.196.089-.18.325.08 1.669.206 2.216.206h.338l-.02.258c-.01.142-.04.426-.065.633-.18 1.47-.802 2.851-1.944 4.319l-.151.194zM101.297 946.128a224 224 0 0 1-1.513-.412l-.78-.216-.255-.344a60 60 0 0 1-1.337-1.91l-.427-.63.32-.019c.176-.01.643-.033 1.039-.05.736-.034 1.859-.112 2.037-.142.115-.019.138.01.489.603.548.927.948 1.89 1.126 2.708.108.494.123.613.075.61-.022 0-.37-.09-.774-.198M107.145 946.277c-.13-1.524-.553-3.233-1.199-4.838l-.2-.498.33-.2c.182-.11.431-.275.555-.368l.224-.168.067.179a35 35 0 0 1 1.282 4.356c.103.483.28 1.488.28 1.59 0 .039-.032.074-.086.095-.115.045-.858.235-1.057.27l-.158.029zM100.82 940.707c-.577-.787-1.227-1.566-2.71-3.254l-1.07-1.22-.178-.206.163-.04c.322-.08 1.547-.499 2.022-.69.266-.108.687-.293.934-.41.248-.119.455-.215.46-.215.015 0 .515.667.891 1.187a36 36 0 0 1 2 3.075c.342.594.76 1.39.74 1.41-.03.03-.808.28-1.16.372-.42.11-1.051.241-1.443.3-.12.017-.254.039-.297.047-.07.014-.108-.025-.351-.356M91.829 935.32c-.795-.928-2.175-2.214-3.01-2.804a3 3 0 0 1-.333-.253c0-.01.135-.108.302-.218a25 25 0 0 0 1.616-1.211l.34-.283.132.147c.235.262.928 1.074 1.296 1.519.452.547 2.466 3.062 2.458 3.07-.023.023-2.36.418-2.458.416-.009 0-.163-.173-.343-.383M100.37 932.554c-.968-1.193-1.736-2.099-3.823-4.507a164 164 0 0 1-1.962-2.285c-.031-.04-.006-.116.146-.437.369-.777.724-1.757.974-2.681l.104-.388.47.482a43.8 43.8 0 0 1 6.386 8.377l.16.272-.34.325c-.459.44-1.114.958-1.585 1.252l-.131.082zM90.343 928.325c-1.563-1.575-3.32-2.865-4.867-3.573l-.327-.15.091-.3c.54-1.775.92-3.99.987-5.74l.023-.593.375.347c1.271 1.176 2.408 2.478 4.61 5.278.419.533.98 1.24 1.248 1.573.267.333.503.628.524.657.032.044.002.109-.188.412-.53.847-1.12 1.609-1.785 2.303-.119.125-.225.227-.235.227s-.215-.199-.456-.44M81.344 929.858a12 12 0 0 0-.726-.027c-.435-.003-.445-.005-.459-.073-.026-.13-.273-4.78-.255-4.797a10.09 10.09 0 0 1 2.393.088c.385.065 1.253.27 1.285.305.044.047-.633 1.82-1.37 3.591l-.393.946-.097-.005zM84.75 915.34c-.245-.152-1.1-.569-1.454-.709a9.4 9.4 0 0 0-2.187-.557c-.369-.044-1.314-.055-1.628-.019l-.207.024-.02-.274-.038-.621-.02-.348.206-.036c.479-.083.757-.105 1.348-.106.88 0 1.638.116 2.528.389.39.12 1.261.447 1.305.49.036.035.322 1.81.296 1.839a1 1 0 0 1-.13-.072M74.419 925.274a21 21 0 0 1-.436-1.477c-.23-.92-.39-1.841-.47-2.737l-.037-.41.462-.622c.932-1.253 1.424-1.866 2.04-2.534.581-.632 1.321-1.254 1.878-1.578l.251-.147.016.1c.008.055.107 1.766.22 3.803s.214 3.817.224 3.956l.019.254-.163.021c-.263.035-1.137.262-1.595.415-.61.203-1.185.444-1.82.761l-.557.28zM66.787 927.15a10 10 0 0 1-.144-.537 19 19 0 0 1-.363-1.883l-.054-.395.215-.277a61 61 0 0 1 2.01-2.464c.952-1.094 3.446-3.837 3.737-4.11l.117-.109-.02.234c-.056.65-.08 1.243-.081 1.92v.75l-.358.47c-.196.258-.683.864-1.083 1.345a101 101 0 0 0-3.565 4.543c-.217.296-.402.527-.41.513M70.574 932.896a11 11 0 0 1-1.066-.934l-.243-.245.302-.374c1.004-1.243 2.188-2.459 3.261-3.348.296-.245.975-.76 1.002-.76.01 0 .08.136.154.304.24.54.833 1.694 1.188 2.314.19.332.348.618.352.635s-.161.092-.368.166a15.2 15.2 0 0 0-4.02 2.164l-.332.25zM64.196 936.633a9 9 0 0 1-.366-.46c-.216-.293-.627-.97-.627-1.034 0-.112 1.3-2.293 2.21-3.712.41-.639 1-1.533 1.04-1.578.013-.014.09.098.172.25.277.512.655 1.113 1.008 1.601.034.048-.011.124-.342.584-.727 1.009-1.54 2.255-2.418 3.708l-.506.836zM59.19 939.898c-.207-.573-.643-1.899-.643-1.955 0-.192 1.486-3.467 2.148-4.733l.234-.447.243.728c.134.4.326.925.427 1.165l.183.438-.308.578a69 69 0 0 0-1.99 4.086c-.093.21-.177.383-.187.383s-.06-.11-.107-.243M62.473 943.436a2 2 0 0 1-.227-.054c-.034-.034.928-1.937 1.521-3.007.272-.49.934-1.65.954-1.67.007-.006.173.068.37.165.195.097.368.177.385.177.016 0-.135.25-.336.555a107 107 0 0 0-1.876 2.982c-.3.494-.552.897-.56.896-.01 0-.113-.02-.231-.044M58.938 948.231a4.1 4.1 0 0 1-1.04-.325l-.289-.137.106-.29c.265-.73 1.709-4.364 1.76-4.43.005-.006.167.142.36.33.194.19.44.405.548.48.107.076.195.149.195.162s-.083.233-.184.486c-.442 1.108-.864 2.394-1.097 3.345-.058.238-.116.412-.137.41zM54.763 954.968c-.28-.044-.778-.16-.806-.188-.024-.024.053-1.439.107-1.952.156-1.491.552-3.365 1.11-5.257l.062-.21.446.445.446.444-.042.125a29 29 0 0 0-.508 1.766c-.397 1.588-.553 2.833-.525 4.19.008.376.006.683-.004.682zM60.19 953.803c-.026-.09-.11-.722-.143-1.084-.04-.443-.04-1.302 0-1.816.035-.44.145-1.323.175-1.4.01-.028.051-.05.09-.05.114 0 .663-.12.963-.21.162-.048.284-.07.3-.053.013.016.064.183.112.372.2.79.56 1.782.922 2.538l.182.381-.533.302c-.697.394-1.51.827-1.811.964-.213.097-.242.103-.257.056M58.67 959.93c-.965-1.005-1.611-2.012-1.946-3.032a8 8 0 0 1-.16-.54l-.022-.11.401-.054a11.4 11.4 0 0 0 1.903-.455l.534-.176.087.234c.31.837.832 1.633 1.651 2.515l.232.249-.363.308c-.369.315-1.219.962-1.68 1.281l-.255.176zM60.968 964.996c-1.234-.684-2.85-1.767-3.449-2.311-.036-.033.019-.07.313-.218.195-.098.514-.268.707-.377.193-.11.364-.2.379-.2s.124.08.242.177c.83.68 1.954 1.429 3.002 1.996l.413.223-.428.328c-.46.352-.779.59-.795.59-.005 0-.178-.094-.384-.208M65.688 960.245a28 28 0 0 1-1.993-1.34l-.492-.37.478-.486c.53-.54.879-.922 1.363-1.494a8 8 0 0 1 .334-.383c.006 0 .191.18.412.398.538.534 1.21 1.121 1.787 1.562.022.017-.295.64-.553 1.087-.31.533-.818 1.297-.863 1.295-.02 0-.233-.122-.473-.269M69.516 965.119c-1.328-.105-3.264-.58-4.544-1.115l-.12-.051.449-.461c.247-.253.617-.654.821-.89.205-.237.385-.43.4-.43s.325.157.69.349c.718.377 1.35.686 2.304 1.126.335.154.618.29.629.301.017.018-.039.231-.266 1.013-.058.198-.026.184-.363.158M69.313 969.592a27 27 0 0 1-1.938-.952c-.524-.288-1.355-.78-1.377-.815-.014-.023.675-.866.925-1.134.054-.056.072-.047.606.306 1.044.69 2.195 1.408 2.807 1.75.116.065.218.13.227.145.02.033-.643.934-.688.933a8 8 0 0 1-.562-.233" style="fill:#191f27;fill-opacity:1;stroke:#191f27;stroke-width:.0379134;stroke-linecap:round;stroke-linejoin:round;stroke-miterlimit:3.3;stroke-dasharray:none;stroke-dashoffset:11.1594;stroke-opacity:1;paint-order:normal" transform="scale(.26458)"/><path d="m19.987 255.475.079-.614" style="fill:#191f27;fill-opacity:1;stroke:#191f27;stroke-width:.321;stroke-linecap:round;stroke-linejoin:round;stroke-miterlimit:3.3;stroke-dasharray:none;stroke-dashoffset:11.1594;stroke-opacity:1;paint-order:normal"/><path d="M74.516 964.388c-.939-.36-2.794-1.106-2.841-1.143-.014-.01.647-2.34.681-2.405q.018-.035.484.135c.255.093.705.241 1 .33.294.087.544.172.554.188s.03.134.041.263c.03.326.178.891.306 1.168.06.128.181.329.27.446l.163.214-.064.47c-.035.26-.063.483-.063.498 0 .039-.005.037-.531-.164M75.484 969.372a29 29 0 0 1-1.906-.55c-.512-.168-1.027-.355-1.057-.385a19 19 0 0 1 .681-.93c.012-.014.197.03.41.098.654.208 1.264.383 1.97.565.37.095.679.185.685.2.013.03-.323 1.115-.345 1.111-.009 0-.206-.05-.438-.11M79.781 971.619c-1.213-.11-3.08-.314-3.104-.338a1.4 1.4 0 0 1 .101-.328l.927.183c.506.1 1.247.238 1.647.304.5.084.726.134.726.161 0 .04-.036.041-.297.018M85.285 968.596a.5.5 0 0 1-.05-.091c0-.007.11-.058.243-.112.504-.203 1.367-.721 2.011-1.207l.301-.228.067.07.066.07-.4.283c-.787.556-1.264.856-1.753 1.1-.41.206-.423.209-.485.115M89.806 967.362l-.07-.088.273-.215c1.224-.968 3.073-2.588 4.428-3.882l.594-.567.021.242.04.466.02.225-2.585 1.942a238 238 0 0 1-2.618 1.954c-.019.006-.065-.029-.103-.077M78.478 977.255c-.425-.192-.773-.36-.774-.374-.001-.04.352-.498.713-.924.467-.55 1.478-1.584 2.17-2.216.21-.192.272-.228.272-.158 0 .028-1.253 3.314-1.49 3.91-.027.064-.064.115-.083.113a18 18 0 0 1-.808-.351M78.336 983.648c.036-.125 1.654-4.306 1.674-4.323.012-.01.373.14.802.335s.795.36.81.365c.037.013-.186.458-.358.714-.339.505-.939 1.179-1.634 1.835-.431.406-1.257 1.13-1.29 1.13-.01 0-.012-.025-.004-.056M85.506 975.608c-.388-.394-1.086-1.215-1.083-1.275 0-.011.084-.082.185-.158.101-.075.25-.204.331-.286l.147-.15.777.519c.428.285.778.529.778.542 0 .03-.623 1.187-.662 1.23-.016.018-.203-.148-.473-.422M89.272 975.044c-.538-.36-.972-.666-.965-.678l.223-.405.21-.384.097.055c.185.104.54.493.78.852.243.366.706 1.22.659 1.217a29 29 0 0 1-1.004-.657" style="fill:#191f27;fill-opacity:1;stroke:#191f27;stroke-width:.0379134;stroke-linecap:round;stroke-linejoin:round;stroke-miterlimit:3.3;stroke-dasharray:none;stroke-dashoffset:11.1594;stroke-opacity:1;paint-order:normal" transform="scale(.26458)"/></g></svg>