<svg xmlns="http://www.w3.org/2000/svg" width="139.202" height="288.333" viewBox="0 0 36.83 76.288"><defs><filter id="a" width="1.191" height="1.079" x="-.121" y="-.031" style="color-interpolation-filters:sRGB"><feFlood flood-color="#191f27" flood-opacity=".502" result="flood"/><feGaussianBlur in="SourceGraphic" result="blur" stdDeviation=".5"/><feOffset dx="-1" dy=".8" in="blur" result="offset"/><feComposite in="flood" in2="offset" operator="in" result="comp1"/><feComposite in="SourceGraphic" in2="comp1" result="comp2"/></filter></defs><g style="filter:url(#a)" transform="translate(-155.721 .925)scale(1.58766)"><path d="M115.473 12.285q0 .01.004.021c1.393.18 3.01.076 3.742.561 1.399.928-5.686 2.626-8.856.974-2.93-.878-7.646-3.08-8.035-2.131.286 1.865 2.395 2.357 4.564 3.109 0 0 6.377-2.592 8.581-2.534z" style="fill:#971228;stroke:#191f27;stroke-width:.321;stroke-linecap:round;stroke-linejoin:round;stroke-dasharray:none"/><path d="M115.46 16.277a4.864 4.126 0 0 1-4.865 4.126 4.864 4.126 0 0 1-4.864-4.126 4.864 4.126 0 0 1 4.864-4.126 4.864 4.126 0 0 1 4.864 4.126" style="fill:#e6cdc5;stroke:#191f27;stroke-width:.321;stroke-linecap:round;stroke-linejoin:round"/><path d="m115.34 12.318-.015.02s-3.765.815-5.324-.033a11.3 11.3 0 0 0-3.323-1.148c-.022-.004-3.01-.308-4.121.285-1.406.75 4.372.478 7.673 2.432 3.17 1.652 10.255-.046 8.856-.973-.733-.486-2.349-.381-3.742-.562q0-.01-.004-.021z" style="fill:#971228;stroke:#191f27;stroke-width:.321;stroke-linecap:round;stroke-linejoin:round;stroke-dasharray:none"/><path d="M110.8 7.28c-3.307.005-3.172 2.303-4.122 3.877 1.143.225 2.329.608 3.323 1.148 1.56.848 5.324.033 5.324.033l.015-.02c-.362-2.32-1.413-4.912-4.205-5.03a8 8 0 0 0-.336-.007z" style="fill:#971228;stroke:#191f27;stroke-width:.321;stroke-linecap:round;stroke-linejoin:round;stroke-dasharray:none"/><path d="M112.764 15.974a.532.442 0 0 1-.532.442.532.442 0 0 1-.532-.442.532.442 0 0 1 .532-.443.532.442 0 0 1 .532.443M109.505 15.974a.532.442 0 0 1-.532.442.532.442 0 0 1-.532-.442.532.442 0 0 1 .532-.443.532.442 0 0 1 .532.443" style="display:inline;fill:#191f27;stroke:#191f27;stroke-width:.321;stroke-linecap:round;stroke-linejoin:round"/><path d="M105.144 20.254h10.995v17.42h-10.995z" style="fill:#971228;stroke:#191f27;stroke-width:.321;stroke-linecap:round;stroke-linejoin:round"/><path d="m105.151 37.667-1.814 7.64M116.152 37.573l1.815 7.641" style="fill:#8ca6c6;fill-opacity:1;stroke:#191f27;stroke-width:.321;stroke-linecap:round;stroke-linejoin:round;stroke-dasharray:none;stroke-opacity:1"/><path d="m116.178 20.351 3.742 6.829-5.66-3.461" style="fill:none;fill-opacity:1;stroke:#191f27;stroke-width:.321;stroke-linecap:round;stroke-linejoin:round;stroke-dasharray:none;stroke-opacity:1"/><g style="stroke-width:.321;stroke-dasharray:none"><path d="M-3.223 149.468c.838.864 3.298 1.799 4.58 1.267 1.144-.475 2.03-1.787 2.291-2.947.2-.881.003-1.34.347-1.7.51-.534.775-.28 1.36-.463.601-.187 1.142-.704 1.38-1.286.29-.708-.023-1.941-.023-1.941l4.56-3.812-1.076-1.17-4.63 3.742s-1.625-.6-2.15-.554c-.688.061-1.492.494-1.756 1.139-.201.493-.011.924-.563 1.378-.516.425-.935.008-2.068.014-1.151.006-2.571.976-3.016 1.742-1.031 1.899-.066 3.734.764 4.591M9.786 136.907l1.835 2.05 2.315-1.835-1.77-2.067z" style="fill:#cb965b;fill-opacity:1;stroke:#191f27;stroke-width:.321;stroke-linecap:round;stroke-linejoin:round;stroke-dasharray:none;stroke-opacity:1" transform="translate(105.47 -115.323)"/><path d="M12.554 136.02c-1.59.56-14.218 11.739-14.218 11.739M12.835 136.44c-1.59.561-14.219 11.74-14.219 11.74M13.256 136.861c-1.59.561-14.219 11.74-14.219 11.74" style="fill:none;fill-opacity:1;stroke:#191f27;stroke-width:.321;stroke-linecap:round;stroke-linejoin:round;stroke-dasharray:none;stroke-opacity:1" transform="translate(105.47 -115.323)"/><path d="M71.024 125.256a1.273 1.063 0 0 1-1.273 1.063 1.273 1.063 0 0 1-1.274-1.063 1.273 1.063 0 0 1 1.274-1.062 1.273 1.063 0 0 1 1.273 1.062" style="fill:#191f27;stroke:#191f27;stroke-linecap:round;stroke-linejoin:round" transform="rotate(27.485 288.509 157.968)"/><path d="m-2.292 146.724 2.058 2.666M10.22 136.668l-.608-.631M11.073 136.049l-.608-.632M11.915 135.405l-.608-.631M13.47 137.3l.608.631M12.71 137.884l.608.632M11.962 138.55l.608.632M9.296 136.084l.444-.41M10.15 135.464l.444-.41M10.991 134.82l.445-.408M14.394 137.884l-.444.41M13.634 138.469l-.444.41M12.886 139.136l-.445.409" style="fill:#191f27;fill-opacity:1;stroke:#191f27;stroke-width:.321;stroke-linecap:round;stroke-linejoin:round;stroke-dasharray:none;stroke-opacity:1" transform="translate(105.47 -115.323)"/></g><path d="m105.172 20.375-4.73 7.441 6.6 1.317" style="fill:none;fill-opacity:1;stroke:#191f27;stroke-width:.321;stroke-linecap:round;stroke-linejoin:round;stroke-dasharray:none;stroke-opacity:1"/><path d="M108.485 7.732c-.343-.036-.646-.065-1.021-.525-1.323-1.62-2.516-1.925-3.771-2.764 1.167-.767 2.608-.16 4.691 2.282.064.492.19.781.101 1.007" style="fill:#678a36;fill-opacity:1;stroke:#191f27;stroke-width:.321;stroke-linecap:round;stroke-linejoin:round;stroke-miterlimit:3.3;stroke-dasharray:none;stroke-dashoffset:11.1594;stroke-opacity:1"/><path d="M103.693 4.443c.825.109 1.645.148 2.864 1.072.843.64 1.517 1.398 1.928 2.217" style="fill:none;fill-opacity:1;stroke:#191f27;stroke-width:.321;stroke-linecap:round;stroke-linejoin:round;stroke-miterlimit:3.3;stroke-dasharray:none;stroke-dashoffset:11.1594;stroke-opacity:1"/><path d="m104.258 4.794.34-.217-.338-.373M104.79 5.096l.63-.26-.613-.657M105.447 5.474l.78-.194-.648-.884M106.157 5.95l.676-.217-.451-.874M106.746 6.443l.639-.207-.258-.78M107.16 6.86l.762-.014-.155-.774M107.589 7.344l.682.006.06-.667" style="fill:none;fill-opacity:1;stroke:#191f27;stroke-width:.321;stroke-linecap:round;stroke-linejoin:round;stroke-miterlimit:3.3;stroke-dasharray:none;stroke-dashoffset:11.1594;stroke-opacity:1"/><path d="M109.142 8.126c-.576-.273-1.09-.512-1.196-1.34-.376-2.924-2.16-4.102-3.387-5.994 3.073-.193 4.928 1.53 5.657 5.996-.497.664-.632 1.111-1.074 1.338" style="fill:#678a36;fill-opacity:1;stroke:#191f27;stroke-width:.321;stroke-linecap:round;stroke-linejoin:round;stroke-miterlimit:3.3;stroke-dasharray:none;stroke-dashoffset:11.1594;stroke-opacity:1"/><path d="M104.559.792c1.36.685 2.798 1.28 3.855 3.256.73 1.366 1.005 2.771.728 4.078" style="fill:none;fill-opacity:1;stroke:#191f27;stroke-width:.321;stroke-linecap:round;stroke-linejoin:round;stroke-miterlimit:3.3;stroke-dasharray:none;stroke-dashoffset:11.1594;stroke-opacity:1"/><path d="m105.145 1.61.887-.047-.147-.696M105.734 2.345l1.467.09-.292-1.236M106.453 3.258l1.656.273-.072-1.545M107.146 4.33l1.495.176.273-1.402M107.599 5.344l1.415.163.506-1.155M107.83 6.146l1.397.488.685-1.08M108.002 7.041l1.23.46.942-.8" style="fill:none;fill-opacity:1;stroke:#191f27;stroke-width:.321;stroke-linecap:round;stroke-linejoin:round;stroke-miterlimit:3.3;stroke-dasharray:none;stroke-dashoffset:11.1594;stroke-opacity:1"/></g></svg>