<svg xmlns="http://www.w3.org/2000/svg" width="166.94" height="256.279" viewBox="0 0 44.17 67.807"><defs><g id="c0" style="stroke:#191f27;stroke-width:.321;stroke-linecap:round;stroke-linejoin:round;stroke-dasharray:none;stroke-opacity:1"><path d="M87.761 216.631c-.016-.33-.814-4.052-.814-4.052q4.125-2.513 8.649-.529l-.096 4.961" style="fill:#c095c1;fill-opacity:1;stroke:#191f27;stroke-width:.321;stroke-linecap:round;stroke-linejoin:round;stroke-miterlimit:3.3;stroke-dasharray:none;stroke-dashoffset:11.1594;stroke-opacity:1;paint-order:normal"/><path d="M88.744 214.267c-.47.574-1.109 1.063-1.926 1.887-.86.868-1.542 1.74-1.542 2.82 0 2.374 2.809 4.298 6.274 4.298s6.274-1.924 6.274-4.298c0-1.08-.666-1.924-1.525-2.79-.817-.825-1.52-1.343-1.99-1.917-.842 1.077-1.034 1.505-2.759 1.509-1.724-.003-1.964-.432-2.806-1.51" style="fill:#c095c1;fill-opacity:1;stroke:#191f27;stroke-width:.321;stroke-linecap:round;stroke-linejoin:round;stroke-miterlimit:3.3;stroke-dasharray:none;stroke-dashoffset:11.1594;stroke-opacity:1"/><path d="M96.385 221.86a4.94 4.19 0 0 1-4.94 4.191 4.94 4.19 0 0 1-4.94-4.19 4.94 4.19 0 0 1 4.94-4.19 4.94 4.19 0 0 1 4.94 4.19" style="fill:#e6cdc5"/><path d="M90.47 221.627a.54.45 0 0 1-.54.449.54.45 0 0 1-.541-.45.54.45 0 0 1 .54-.448.54.45 0 0 1 .54.449M93.656 221.732a.54.45 0 0 1-.54.449.54.45 0 0 1-.54-.45.54.45 0 0 1 .54-.448.54.45 0 0 1 .54.449" style="fill:#191f27"/><path d="M88.77 224.37c.314.514.605.735 1.33.504.773-.246 1.146-.873 1.128-1.602-.01-.434-.228-.647-.502-.65-.571-.006-.852.307-1.074 1.335-.095.44-.53.52-.882.414M94.008 224.37c-.315.514-.605.735-1.33.504-.773-.246-1.146-.873-1.128-1.602.01-.434.228-.647.502-.65.571-.006.852.307 1.074 1.335.095.44.53.52.882.414" style="fill:#f1f11e;fill-opacity:1;stroke:#191f27;stroke-width:.321;stroke-linecap:round;stroke-linejoin:round;stroke-miterlimit:3.3;stroke-dasharray:none;stroke-dashoffset:11.1594;stroke-opacity:1"/><path d="M91.375 225.63s-.333-.351-.333-.576.094-.514.343-.514.29.327.29.509c0 .181-.3.581-.3.581" style="fill:#f1f11e;fill-opacity:1;stroke:#191f27;stroke-width:.321;stroke-linecap:round;stroke-linejoin:round;stroke-miterlimit:3.3;stroke-dasharray:none;stroke-dashoffset:11.1594;stroke-opacity:1;paint-order:normal"/><path d="M85.933 245.026c4.007 1.309 7.6.607 10.992-1.075l.016-17.99-11.428.154z" style="fill:#c095c1;fill-opacity:1;stroke:#191f27;stroke-width:.321;stroke-linecap:round;stroke-linejoin:round;stroke-miterlimit:3.3;stroke-dasharray:none;stroke-dashoffset:11.1594;stroke-opacity:1"/><path d="m96.94 225.961-9.92.128 2.74 4.868c.606.573.946.467 1.288-.239 1.124 1.126 2.14.09 2.085-.84.878.902 2.151.54 1.913-1.079 1.892.73 1.542-1.589 1.895-2.838m-1.558 1.359c.151.004.307.09.412.228.171.226.163.52-.019.659-.182.138-.468.067-.64-.159-.17-.225-.162-.52.02-.658a.36.36 0 0 1 .227-.07m-1.456 1.328c0-.04.41.071.454.352.102.264.012.545-.201.627s-.468-.065-.57-.33c-.102-.263-.012-.544.2-.626.038-.014.117-.023.117-.023m-1.975.813c.229 0 .414.23.414.512 0 .284-.185.513-.414.513s-.413-.23-.413-.513.185-.512.413-.512" style="fill:#fff;fill-opacity:1;stroke:#191f27;stroke-width:.321;stroke-linecap:round;stroke-linejoin:round;stroke-miterlimit:3.3;stroke-dasharray:none;stroke-dashoffset:11.1594;stroke-opacity:1;paint-order:normal"/><g style="stroke:#191f27;stroke-width:.321;stroke-linecap:round;stroke-linejoin:round;stroke-dasharray:none;stroke-opacity:1"><path d="m44.996 183.34-1.508.025 7.587 13.499 1.072-.732z" style="fill:#971228;fill-opacity:1;stroke:#191f27;stroke-width:.321;stroke-linecap:round;stroke-linejoin:round;stroke-miterlimit:3.3;stroke-dasharray:none;stroke-dashoffset:11.1594;stroke-opacity:1;paint-order:normal" transform="translate(42.025 42.75)"/><path d="m44.996 183.34 7.151 12.792.846-.578-6.4-12.23z" style="fill:#8ca6c6;fill-opacity:1;stroke:#191f27;stroke-width:.321;stroke-linecap:round;stroke-linejoin:round;stroke-miterlimit:3.3;stroke-dasharray:none;stroke-dashoffset:11.1594;stroke-opacity:1;paint-order:normal" transform="translate(42.025 42.75)"/></g><path d="M85.89 243.07s3.794.235 5.833.112c2.038-.123 5.204-.9 5.204-.9v-1.65s-2.774.92-4.774.92-6.305-.308-6.305-.308z" style="fill:#cb965b;fill-opacity:1;stroke:#191f27;stroke-width:.321;stroke-linecap:round;stroke-linejoin:round;stroke-miterlimit:3.3;stroke-dasharray:none;stroke-dashoffset:11.1594;stroke-opacity:1"/><path d="m94.747 240.195.727.008 1.438 3.042-1.372-.628z" style="fill:#8ca6c6;fill-opacity:1;stroke:#191f27;stroke-width:.321;stroke-linecap:round;stroke-linejoin:round;stroke-miterlimit:3.3;stroke-dasharray:none;stroke-dashoffset:11.1594;stroke-opacity:1;paint-order:normal"/><path d="m94.747 240.195.793 2.422-.314 1.604-1.19-4.034z" style="fill:#961228;fill-opacity:1;stroke:#191f27;stroke-width:.321;stroke-linecap:round;stroke-linejoin:round;stroke-miterlimit:3.3;stroke-dasharray:none;stroke-dashoffset:11.1594;stroke-opacity:1;paint-order:normal"/><path d="M92.425 241.547c-.306.03.01.005-.271.005-.176 0-.374-.003-.58-.007l-1.024-.032.324 1.702c.348-.001.007 0 .323-.01l.255-.01c.091-.003.184-.007.27-.012.373-.023.121.011.548-.045z" style="fill:#f1f11e;fill-opacity:1;stroke:#191f27;stroke-width:.321;stroke-linecap:round;stroke-linejoin:round;stroke-miterlimit:3.3;stroke-dasharray:none;stroke-dashoffset:11.1594;stroke-opacity:1"/><path d="m93.827 239.606-.727.008-1.438 3.042 1.372-.628z" style="fill:#971228;fill-opacity:1;stroke:#191f27;stroke-width:.321;stroke-linecap:round;stroke-linejoin:round;stroke-miterlimit:3.3;stroke-dasharray:none;stroke-dashoffset:11.1594;stroke-opacity:1;paint-order:normal"/><path d="m93.827 239.606-.793 2.422.314 1.604 1.19-4.035z" style="fill:#8ca6c6;fill-opacity:1;stroke:#191f27;stroke-width:.321;stroke-linecap:round;stroke-linejoin:round;stroke-miterlimit:3.3;stroke-dasharray:none;stroke-dashoffset:11.1594;stroke-opacity:1;paint-order:normal"/><g style="stroke:#191f27;stroke-width:.321;stroke-linecap:round;stroke-linejoin:round;stroke-dasharray:none;stroke-opacity:1"><path d="M54.396 197.273a2.4 2.4 0 0 0-.152-1.602c-.332-.255-.878-.322-1.224-.05-.312.49-.183 1.056-.027 1.547q.678.66 1.403.105" style="fill:#961228;fill-opacity:1;stroke:#191f27;stroke-width:.321;stroke-linecap:round;stroke-linejoin:round;stroke-miterlimit:3.3;stroke-dasharray:none;stroke-dashoffset:11.1594;stroke-opacity:1;paint-order:normal" transform="translate(40.35 42.922)"/><path d="M56.913 196.456H54.46q.042.408-.063.817l2.56.994c-.036-.608-.015-1.205-.043-1.811" style="fill:#8ca6c6;fill-opacity:1;stroke:#191f27;stroke-width:.321;stroke-linecap:round;stroke-linejoin:round;stroke-miterlimit:3.3;stroke-dasharray:none;stroke-dashoffset:11.1594;stroke-opacity:1;paint-order:normal" transform="translate(40.35 42.922)"/><path d="m56.5 194.408-2.256 1.263q.175.393.215.785h2.454c-.03-.664-.12-1.338-.412-2.048" style="fill:#971228;fill-opacity:1;stroke:#191f27;stroke-width:.321;stroke-linecap:round;stroke-linejoin:round;stroke-miterlimit:3.3;stroke-dasharray:none;stroke-dashoffset:11.1594;stroke-opacity:1;paint-order:normal" transform="translate(40.35 42.922)"/><path d="M52.836 196.458c-.024-.285.015-.572.184-.838l-2.273-1.382c-.177.686-.356 1.378-.3 2.211z" style="fill:#8ca6c6;fill-opacity:1;stroke:#191f27;stroke-width:.321;stroke-linecap:round;stroke-linejoin:round;stroke-miterlimit:3.3;stroke-dasharray:none;stroke-dashoffset:11.1594;stroke-opacity:1;paint-order:normal" transform="translate(40.35 42.922)"/><path d="m52.836 196.458-2.39-.009a5.5 5.5 0 0 0 .407 1.69l2.14-.97a3.3 3.3 0 0 1-.157-.71z" style="fill:#971228;fill-opacity:1;stroke:#191f27;stroke-width:.321;stroke-linecap:round;stroke-linejoin:round;stroke-miterlimit:3.3;stroke-dasharray:none;stroke-dashoffset:11.1594;stroke-opacity:1;paint-order:normal" transform="translate(40.35 42.922)"/></g><path d="M78.727 229.095c-.255 1.52-1.562 3.604.762 3.76l1.848 4.116-1.123.538.354 1.044c.306-.722.74-.953 1.362-.652l.272.59c-.316.412-.792.557-1.333.538l.585.912 1.683-.748-2.966-6.496c1.762-1.604-.636-2.509-1.444-3.602m.513 1.548c.292.394 1.17.721.534 1.3a.4.4 0 0 1-.246.058c-.84-.057-.38-.81-.288-1.358" style="fill:#f1f11e;fill-opacity:1;stroke:#191f27;stroke-width:.321;stroke-linecap:round;stroke-linejoin:round;stroke-miterlimit:3.3;stroke-dasharray:none;stroke-dashoffset:11.1594;stroke-opacity:1;paint-order:normal"/><path d="M85.933 245.026q-.864 2.802-.801 5.34M96.925 243.951q.305 3.44 1.668 6.348M96.941 225.961a31.9 31.9 0 0 1 5.29 6.644M85.513 226.115l-4.709 7.97" style="fill:none;fill-opacity:1;stroke:#191f27;stroke-width:.321;stroke-linecap:round;stroke-linejoin:round;stroke-miterlimit:3.3;stroke-dasharray:none;stroke-dashoffset:11.1594;stroke-opacity:1;paint-order:normal"/></g><filter id="a" width="1.154" height="1.09" x="-.098" y="-.035" style="color-interpolation-filters:sRGB"><feFlood flood-color="#191f27" flood-opacity=".502" result="flood"/><feGaussianBlur in="SourceGraphic" result="blur" stdDeviation=".5"/><feOffset dx="-1" dy=".8" in="blur" result="offset"/><feComposite in="flood" in2="offset" operator="in" result="comp1"/></filter></defs><g transform="translate(-120.298 -333.119)scale(1.58766)" style="filter:url(#a)"><use href="#c0"/></g><g transform="translate(-120.298 -333.119)scale(1.58766)"><use href="#c0"/></g></svg>