<svg xmlns="http://www.w3.org/2000/svg" xmlns:xlink="http://www.w3.org/1999/xlink" width="50.538" height="55.928" viewBox="0 0 13.372 14.798"><defs><radialGradient xlink:href="#a" id="e" cx="1918.42" cy="152.291" r="6.935" fx="1918.42" fy="152.291" gradientTransform="matrix(1.2765 0 0 1.27651 -438.24 -56.927)" gradientUnits="userSpaceOnUse"/><radialGradient xlink:href="#b" id="f" cx="90.275" cy="222.936" r="1.938" fx="90.275" fy="222.936" gradientTransform="translate(1772.83 -449.774)scale(2.63416)" gradientUnits="userSpaceOnUse"/><radialGradient xlink:href="#c" id="g" cx="90.275" cy="222.936" r=".952" fx="90.275" fy="222.936" gradientTransform="translate(1772.83 -449.774)scale(2.63416)" gradientUnits="userSpaceOnUse"/><linearGradient id="a"><stop offset=".651" style="stop-color:#f1f11e;stop-opacity:1"/><stop offset="1" style="stop-color:#f1f11e;stop-opacity:0"/></linearGradient><linearGradient id="b"><stop offset=".81" style="stop-color:#cb965b;stop-opacity:1"/><stop offset="1" style="stop-color:#cb965b;stop-opacity:0"/></linearGradient><linearGradient id="c"><stop offset=".515" style="stop-color:#cb965b;stop-opacity:1"/><stop offset="1" style="stop-color:#cb965b;stop-opacity:0"/></linearGradient><filter id="d" width="1" height="1" x="0" y="0" style="color-interpolation-filters:sRGB"><feFlood flood-color="#191f27" flood-opacity="0" result="flood"/><feGaussianBlur in="SourceGraphic" result="blur"/><feOffset in="blur" result="offset"/><feComposite in="flood" in2="offset" operator="in" result="comp1"/><feComposite in="SourceGraphic" in2="comp1" result="comp2"/></filter></defs><g style="filter:url(#d)" transform="translate(-1511.745 -97.135)scale(.7552)"><path d="M2019.48 137.474a8.853 8.853 0 0 1-8.853 8.853 8.853 8.853 0 0 1-8.853-8.853 8.853 8.853 0 0 1 8.853-8.853 8.853 8.853 0 0 1 8.853 8.853" style="fill:url(#e);stroke:none;stroke-width:1.07937;stroke-linecap:round;stroke-linejoin:round;stroke-miterlimit:3.3;stroke-dasharray:none;stroke-dashoffset:11.1594;stroke-opacity:1"/><path d="M2015.309 137.474a4.68 4.68 0 0 1-4.682 4.682 4.68 4.68 0 0 1-4.682-4.682 4.68 4.68 0 0 1 4.682-4.682 4.68 4.68 0 0 1 4.682 4.682" style="fill:none;stroke:url(#f);stroke-width:.845565;stroke-linecap:round;stroke-linejoin:round;stroke-miterlimit:3.3"/></g><path d="M2012.712 137.474a2.085 2.085 0 0 1-2.085 2.085 2.085 2.085 0 0 1-2.085-2.085 2.085 2.085 0 0 1 2.085-2.085 2.085 2.085 0 0 1 2.085 2.085" style="fill:none;stroke:url(#g);stroke-width:.845565;stroke-linecap:round;stroke-linejoin:round;stroke-miterlimit:3.3" transform="translate(-1511.745 -97.135)scale(.7552)"/><path d="M2016.666 73.734a4.247 5.007 83.671 0 1-4.508 4.774 4.247 5.007 83.671 0 1-5.445-3.67 4.247 5.007 83.671 0 1 4.508-4.773 4.247 5.007 83.671 0 1 5.445 3.67z" style="fill:#e6cdc5;stroke:#191f27;stroke-width:.330445" transform="translate(-1861.508 -58.766)scale(.92867)"/><path d="M2014.057 75.387a.548.455 0 0 1-.548.455.548.455 0 0 1-.547-.455.548.455 0 0 1 .547-.456.548.455 0 0 1 .548.456zM2010.702 75.387a.548.455 0 0 1-.548.455.548.455 0 0 1-.547-.455.548.455 0 0 1 .547-.456.548.455 0 0 1 .548.456z" style="display:inline;fill:#191f27;stroke:#191f27;stroke-width:.330445" transform="translate(-1861.508 -58.766)scale(.92867)"/><path d="m2006.362 79.049 2.488-.473c-.181-1.979-.933-4.42.913-5.191.973-.407 1.623.464 2.147 1.054.138-.87.821-1.556 1.509-1.418 1.761.352 1.592 3.272 2.203 4.964l1.754-.512s-.669-3.685-1.06-5.516c-.436-2.035-4.34-4.432-4.61-4.334-.225-.434-4.173 2.799-4.814 5.673-.419 1.882-1.183 5.753-.53 5.753" style="fill:#868086;fill-opacity:1;stroke:#191f27;stroke-width:.330445;stroke-linecap:round;stroke-linejoin:round;stroke-miterlimit:3.3;stroke-dasharray:none;stroke-opacity:1" transform="translate(-1861.508 -58.766)scale(.92867)"/></svg>